Coordinates
version=1
nRows=19
nColumns=36
inDegrees=yes

Units are S.I. units (second, meters, Newtons, ...)
If the header above contains a line with 'inDegrees', this indicates whether rotational values are in degrees (yes) or radians (no).

endheader
time	pelvis_tilt	pelvis_list	pelvis_rotation	pelvis_tx	pelvis_ty	pelvis_tz	hip_flexion_r	hip_adduction_r	hip_rotation_r	knee_angle_r	knee_angle_r_beta	ankle_angle_r	subtalar_angle_r	mtp_angle_r	hip_flexion_l	hip_adduction_l	hip_rotation_l	knee_angle_l	knee_angle_l_beta	ankle_angle_l	subtalar_angle_l	mtp_angle_l	lumbar_extension	lumbar_bending	lumbar_rotation	arm_flex_r	arm_add_r	arm_rot_r	elbow_flex_r	pro_sup_r	arm_flex_l	arm_add_l	arm_rot_l	elbow_flex_l	pro_sup_l
      0.00000000	     -5.47690900	     -0.74930005	     -0.85410017	      0.03951520	      0.86098587	      0.01761650	     11.37359729	     -8.48744682	    -10.15930429	      8.98821836	      0.15687400	     -5.12060622	    -23.04146554	     -7.14137666	     10.46608376	     -9.64257892	     -6.92453253	      7.28156584	      0.12708730	     -2.70670914	    -13.78574855	     -7.14137666	      4.67440667	     -1.91403055	      3.57697372	     47.76089217	      7.77773030	     58.69946100	    115.39607082	     96.94579526	     38.71653577	     12.58122374	     58.32275363	    107.05157483	     96.29302839
      0.01666670	     -6.58136550	     -1.63142492	     -0.34083790	      0.03867747	      0.85494238	      0.02035408	     12.10517929	     -7.34041006	    -12.37113415	      7.94049112	      0.13858771	     -2.54399477	    -21.93318532	     -7.17562577	     12.12415716	    -10.70717735	     -7.93051875	      7.39489479	      0.12906526	     -0.85880493	    -12.88911037	     -7.17562577	      6.31809132	     -1.27275581	      4.08357956	     49.53300844	      6.75701910	     60.15908182	    118.53349867	     97.58381179	     40.22108851	     12.61276893	     60.23471163	    109.45962695	     94.71828056
      0.03333330	     -7.41847760	     -1.86103944	     -0.03285532	      0.03563461	      0.85492546	      0.02452045	     12.78266114	     -6.75856037	    -13.22035984	      6.98063707	      0.12183510	     -3.21836581	    -22.58034454	     -7.26874509	     14.02067739	    -11.04511331	     -7.24416052	      8.59140232	      0.14994826	     -0.45717649	    -12.83835495	     -7.26874509	      6.90046924	     -1.38746663	      5.04238203	     49.96093604	      6.40722708	     61.51569472	    119.66277168	     99.04414531	     41.31448168	     12.62248597	     61.14436126	    111.94616110	     89.80828468
      0.05000000	     -7.26672434	     -1.98758340	      0.16028990	      0.03115728	      0.85729258	      0.02579972	     12.47077281	     -6.51433626	    -14.01213920	      6.28977176	      0.10977723	     -3.02437429	    -21.22316191	     -7.31468024	     14.65879790	    -11.44217634	     -7.11674018	      9.46371693	      0.16517302	     -0.81999871	    -13.39838220	     -7.31468024	      6.55788982	     -1.75724430	      5.96064591	     50.57024220	      5.91257877	     62.52799961	    119.12253749	     96.07448179	     42.21814340	     13.01746493	     61.77837629	    112.53278633	     86.11445209
      0.06666670	     -7.24023174	     -2.14549420	      0.32927084	      0.03151112	      0.85825164	      0.02641545	     12.44411644	     -6.20285056	    -14.55992872	      6.05656471	      0.10570700	     -3.02683563	    -20.85333059	     -7.36588752	     15.23300034	    -11.67624336	     -7.14066410	     10.09621660	      0.17621222	     -1.24407988	    -13.84149588	     -7.36588752	      6.45162999	     -1.82780019	      6.41053549	     50.78837728	      5.73922438	     63.28148040	    118.22620449	     96.76119815	     42.36811656	     13.43988007	     62.42123608	    112.95081596	     80.53625146
      0.08333330	     -6.99796635	     -2.28147885	      0.54807344	      0.03204528	      0.85748837	      0.02599723	     12.16623688	     -6.03504160	    -14.88852378	      6.18835924	      0.10800724	     -3.29196465	    -20.85413133	     -7.39666198	     15.68298574	    -11.77267125	     -7.04008384	     11.23962335	      0.19616843	     -1.50538728	    -14.66476782	     -7.39666198	      6.48383664	     -1.95452819	      6.24123042	     50.42002128	      5.62076454	     63.42726974	    117.34559117	     93.55743459	     42.16197592	     13.60036225	     62.40051882	    113.07143202	     77.85187271
      0.10000000	     -6.98456958	     -2.39659966	      0.71220104	      0.03398367	      0.85397447	      0.02470656	     12.19464123	     -6.01557784	    -15.28364010	      6.56627640	      0.11460314	     -3.04382066	    -20.78665285	     -7.40311951	     16.15140277	    -11.85682901	     -7.59876767	     12.09793657	      0.21114883	     -1.60358464	    -14.95115469	     -7.40311951	      6.88495031	     -2.00169052	      5.92697842	     50.25380452	      5.87989511	     63.44776604	    116.86525548	     92.27598557	     41.95815059	     13.81690281	     62.07510026	    112.39462752	     76.69744374
      0.11666670	     -6.77087866	     -2.38140430	      0.87688112	      0.03315827	      0.85482531	      0.02242604	     12.02576517	     -6.16729314	    -15.11753764	      6.88689214	      0.12019894	     -2.95223219	    -21.63609296	     -7.42238074	     16.35525130	    -11.65833446	     -7.43183426	     12.87438974	      0.22470049	     -1.69003748	    -16.15170942	     -7.42238074	      6.77835078	     -2.15481174	      5.55416797	     49.98569271	      6.08046786	     63.28441069	    116.52255359	     91.54053655	     42.03031851	     13.97646664	     61.89147383	    111.70100073	     74.58448530
      0.13333330	     -6.53147154	     -2.39705854	      1.06265511	      0.03546048	      0.85487014	      0.01897209	     11.66685676	     -6.34167796	    -15.25695120	      7.10086021	      0.12393339	     -2.92914933	    -21.71656280	     -7.42669552	     16.26483835	    -11.51855857	     -7.73167537	     13.29398230	      0.23202376	     -1.93955261	    -16.63917797	     -7.42669552	      6.78949404	     -2.16006924	      5.42471069	     50.12359878	      6.30564134	     63.38513249	    116.73495495	     91.06108835	     41.50989683	     14.01624622	     62.63519683	    112.59844087	     73.67435330
      0.15000000	     -6.39609974	     -2.36239656	      1.16563341	      0.03656373	      0.85712130	      0.01470029	     11.54342844	     -6.65563740	    -15.24614748	      7.35843106	      0.12842885	     -3.23181164	    -22.00368440	     -7.43432815	     16.10753606	    -11.23812662	     -7.95383997	     13.47542833	      0.23519059	     -1.99362887	    -17.04926019	     -7.43432815	      6.89407371	     -2.17626666	      5.11523528	     49.47616427	      6.36286212	     63.27763126	    116.95633371	     90.34303479	     41.03668399	     13.99087560	     62.75894936	    112.93523882	     72.56416707
      0.16666670	     -6.15853281	     -2.34927532	      1.19939800	      0.03959822	      0.85527056	      0.01242267	     11.20405986	     -6.90141301	    -15.00011847	      7.51780143	      0.13121039	     -3.55718507	    -22.39829445	     -7.45780142	     15.50237041	    -11.01518130	     -8.07995290	     13.19264099	      0.23025502	     -2.02608258	    -17.33032629	     -7.45780142	      7.19467748	     -2.22218885	      4.54850527	     48.76675531	      6.79006194	     63.23220586	    117.45434619	     93.50568587	     40.74153993	     13.80703509	     63.18895711	    113.42707849	     68.60267790
      0.18333330	     -6.07008272	     -2.24680006	      1.07056106	      0.04118463	      0.85850598	      0.00871985	     11.10476991	     -7.24975045	    -14.46712718	      7.69639683	      0.13432747	     -4.37318560	    -23.37391623	     -7.46254442	     14.90909826	    -10.65861530	     -8.52479658	     12.66222122	      0.22099745	     -1.71721107	    -16.86673241	     -7.46254442	      7.52289403	     -2.27632519	      4.00308223	     47.91959445	      7.24818661	     63.62752938	    117.99733143	     90.91855284	     40.33866437	     13.51063236	     63.49298420	    113.81058764	     67.48726460
      0.20000000	     -5.59187177	     -2.17323644	      1.17095190	      0.04558571	      0.85963744	      0.00389083	     10.28992211	     -7.63838225	    -14.85433030	      7.59085812	      0.13248547	     -4.35845906	    -22.63474207	     -7.46701900	     13.80643396	    -10.22289817	     -8.50460172	     11.89768618	      0.20765380	     -1.75557270	    -16.87730465	     -7.46701900	      7.60217501	     -2.27062658	      3.44010439	     47.15830618	      7.53660809	     63.54132012	    117.70582938	     89.37947484	     40.03688770	     13.44050127	     63.67361000	    113.67912332	     66.86969583
      0.21666670	     -5.44915649	     -2.21361419	      1.21194702	      0.04430674	      0.86505162	     -0.00029344	     10.20702172	     -7.88690001	    -14.87675950	      7.79759648	      0.13609373	     -4.74177268	    -22.47250308	     -7.46721213	     13.19914524	     -9.85696456	     -8.32932781	     11.19838898	      0.19544876	     -1.48685755	    -16.80915577	     -7.46721213	      7.83885400	     -2.17376408	      3.08478806	     46.06272496	      7.35992727	     63.82516757	    117.81568970	     89.43468265	     39.47898795	     12.79940238	     63.86342123	    113.37726602	     66.82938402
      0.23333330	     -5.20254622	     -1.99340968	      1.61255699	      0.04372461	      0.86472498	     -0.00430876	      9.74549561	     -8.41865245	    -14.91832234	      7.60347189	      0.13270562	     -5.40324685	    -22.73602087	     -7.46827369	     12.51359665	     -9.15356417	     -8.25166050	     10.29486481	      0.17967929	     -1.84434502	    -16.56804585	     -7.46827369	      7.88641979	     -2.54998841	      2.85510654	     45.09341058	      7.20676266	     63.21640379	    118.08896897	     89.35028948	     39.24671454	     12.75447020	     64.73063105	    114.49232633	     66.59037959
      0.25000000	     -4.96086635	     -1.84841177	      1.69720131	      0.04220800	      0.86568921	     -0.00822061	      9.67578865	     -8.91802878	    -14.90676008	      7.88754351	      0.13766360	     -6.02386394	    -22.91256105	     -7.47591488	     11.90517148	     -8.59803097	     -8.25445577	      9.56594031	      0.16695715	     -1.82650197	    -16.12191790	     -7.47591488	      7.80889946	     -2.79441103	      3.10526039	     44.25811961	      6.72933221	     62.34572817	    118.31267669	     90.96715218	     39.45243486	     12.59646767	     65.26238194	    113.94031854	     64.23065264
      0.26666670	     -4.66408816	     -1.80163571	      1.87648722	      0.04315953	      0.86368678	     -0.01203437	      9.55770958	     -9.33860830	    -15.03425995	      8.29830979	      0.14483283	     -6.11021532	    -22.81652027	     -7.47974064	     11.25884062	     -8.16367474	     -8.02445078	      8.98124500	      0.15675230	     -1.45784940	    -15.58038456	     -7.47974064	      7.64870789	     -2.83949348	      2.84412232	     43.88340223	      6.48530166	     61.76455398	    118.33789453	     88.81017731	     39.60538596	     12.29549224	     65.32596529	    113.89716738	     63.85950231
      0.28333330	     -4.57163977	     -1.77817861	      2.02673161	      0.04197724	      0.85991081	     -0.01546597	      9.76129666	     -9.76071336	    -14.82725047	      8.86419235	      0.15470934	     -6.39795511	    -23.33091682	     -7.48178915	     10.90068634	     -7.78549991	     -7.71643089	      8.43592098	      0.14723460	     -1.25443818	    -15.44725091	     -7.48178915	      7.77956834	     -2.90654164	      2.59408945	     43.72442500	      6.28536027	     61.10020853	    118.67220685	     87.74853418	     40.05030782	     12.35532300	     65.51620598	    114.07679357	     63.66475957
      0.30000000	     -4.58815797	     -1.76701259	      2.25848545	      0.04075271	      0.86568706	     -0.01878759	     10.10445714	    -10.20234264	    -14.91999781	      9.34223768	      0.16305281	     -6.81097938	    -23.41466880	     -7.48198435	     10.70219227	     -7.42124173	     -7.40373573	      7.83945166	      0.13682424	     -1.21413103	    -15.20052995	     -7.48198435	      7.81172272	     -2.95155405	      2.48426172	     43.94054513	      6.09364959	     60.47301411	    118.51181277	     87.75828859	     40.38690868	     12.41303789	     65.82862167	    114.34249222	     63.64722720
